<svg width="1005" height="731" viewBox="0 0 1005 731" xmlns="http://www.w3.org/2000/svg">
<path d="M159.817 87.6018C181.118 85.5002 216.072 91.7384 234.654 103.891C258.582 119.54 270.075 140.631 262.45 169.754C259.614 180.581 249.361 193.832 251.042 203.896C251.956 209.365 262.818 214.448 267.417 216.715C281.752 223.976 291.27 238.823 295.847 253.753C314.221 313.678 268.278 345.904 217.583 361.099C204.063 365.028 190.171 367.547 176.132 368.616C154.943 370.183 117.735 370.538 100.96 355.857C97.1329 352.474 94.1831 348.213 92.3626 343.44C89.17 335.291 87.0024 321.367 85.4036 312.482C78.7598 275.284 74.3262 237.725 72.1243 200.003C70.8956 179.88 71.3229 158.467 72.1321 138.327C73.6498 100.533 129.708 89.3854 159.817 87.6018ZM219.285 279.949C231.034 260.656 208.289 247.032 190.711 248.605C174.584 249.83 154.156 262.3 155.785 280.478C156.261 285.805 158.9 290.705 163.086 294.031C169.171 298.933 178.336 301.129 186.036 300.199C186.966 300.091 187.89 299.943 188.808 299.759C200.453 297.017 212.87 290.483 219.285 279.949ZM175.559 188.346C211.028 179.356 201.896 145.491 165.282 149.408C157.582 150.468 149.997 153.385 145.195 159.694C138.753 168.155 142.616 178.674 150.796 184.227C157.925 189.066 166.677 189.964 174.943 188.464L175.559 188.346Z" fill="#DB7A96"/>
<path d="M308.912 371.856C313.256 371.692 317.605 371.666 321.951 371.779C337.526 372.262 357.798 375.569 368.485 387.614C387.198 408.706 375.206 433.616 363.67 454.205C354.523 470.318 344.122 485.684 332.561 500.163C321.402 514.312 308.874 527.989 296.545 541.131C288.494 549.718 279.778 558.123 272.771 567.598C270.795 570.273 267.927 574.132 267.949 577.608C267.964 579.94 269.032 582.286 270.84 583.774C277.213 589.017 325.95 578.781 336.271 577.151C341.544 576.277 346.864 575.713 352.202 575.462C362.635 574.991 371.732 576.322 379.809 583.627C397.867 599.955 389.726 630.3 368.061 639.082C353.744 644.885 337.839 646.559 322.58 648.98C298.344 652.824 274.219 655.362 249.656 656.069C230.969 656.849 195.039 659.221 182.555 644.355C151.6 607.506 204.415 544.514 226.77 516.433C236.972 503.565 247.269 490.776 257.66 478.064C262.531 472.113 283.917 450.447 277.095 442.492C275.241 440.63 270.494 440.109 268.049 440.638C245.469 446.499 231.679 451.851 207.94 454.185C176.114 457.313 156.537 424.774 175.529 399.625C184.546 387.686 213.688 384.028 229.128 381.588C254.825 377.526 282.443 372.705 308.912 371.856Z" fill="#8DBDC1"/>
<path d="M567.632 68.3685C574.414 67.744 580.264 67.9281 586.574 70.8216C592.762 73.6062 597.773 78.4787 600.727 84.5863C608.357 100.023 605.914 127.364 605.443 144.272C605.222 152.044 603.225 161.877 606.071 169.276C610.737 181.406 625.214 168.919 632.261 166.058C676.372 143.562 721.602 179.166 727.51 224.17C733.109 266.838 728.565 327.788 684.37 349.141C662.523 358.304 638.601 356.647 617.789 345.729C613.495 343.476 594.342 329.325 590.814 333.775C583.414 343.096 580.45 352.822 567.014 356.027C560.865 357.477 554.393 356.425 549.02 353.102C537.203 345.693 536.791 331.983 536.256 319.51C535.996 313.4 535.662 307.263 535.358 301.152C533.061 249.528 533.09 197.826 535.441 146.205C536.167 131.047 536.329 116.152 538.007 101.028C539.97 83.3154 550.172 72.2892 567.632 68.3685ZM642.668 221.126C638.689 221.367 635.882 221.63 632.005 222.596C616.626 226.429 603.494 243.176 604.593 259.193C605.599 273.861 619.329 290.911 633.531 294.832C637.962 295.106 641.103 295.308 645.319 293.701C673.819 282.831 684.978 219.964 642.668 221.126Z" fill="#DB7A96"/>
<path d="M719.831 434.202C744.004 433.028 775.646 440.24 793.641 457.331C813.539 476.226 818.364 507.34 818.854 533.335C819.419 562.816 813.805 591.879 792.247 613.421C773.727 632.347 749.569 641.729 723.409 642.249C655.258 643.04 628.012 602.086 624.248 537.415C622.751 511.73 630.696 481.506 648.529 462.245C667.633 441.611 692.478 435.246 719.831 434.202ZM753.972 505.715C748.161 500.801 736.973 500.753 729.499 501.42C716.706 503.094 704.428 507.861 696.258 518.446C685.501 532.373 686.149 560.233 700.586 571.667C706.607 576.434 716.775 577.362 724.121 576.523C735.854 574.858 745.615 570.651 753.388 560.631C764.502 546.311 769.601 518.936 753.972 505.715Z" fill="#8DBDC1"/>
<path d="M893.949 150.449C911.246 150.96 924.501 162.652 925.458 180.189C926.277 195.203 923.539 208.945 921.993 223.753C917.915 262.438 911.242 302.298 899.489 339.308C885.356 383.818 861.119 431.199 808.784 434.424C787.172 435.949 754.142 429.778 751.752 403.248C747.929 385.59 770.605 364.428 787.584 368.65C808.484 373.847 813.504 366.18 828.035 349.089C831.112 345.045 836.284 337.62 835.68 332.364C833.796 315.984 813.254 316.94 802.792 313.58C795.048 311.092 787.952 306.926 782.005 301.379C763.205 283.572 756.046 246.775 750.348 222.26C747.09 209.294 743.434 196.675 742.732 183.299C741.746 164.553 755.241 152.132 773.937 152.353C822.701 152.931 802.056 225.03 828.766 250.596C831.813 253.509 835.474 255.963 839.841 255.748C851.452 254.793 851.059 237.112 852.551 228.763C857.758 199.603 852.792 151.633 893.949 150.449Z" fill="#DB7A96"/>
<path d="M399.725 142.081C423.713 141.615 444.206 145.108 464.518 159.277C507.863 189.511 508.924 247.856 504.576 295.303C504.242 298.969 503.442 303.534 503.467 307.158C503.516 313.127 507.908 318.92 508.276 324.944C508.909 331.707 505.827 339.651 501.597 344.895C491.871 357.381 467.172 358.021 455.718 347.962C448.28 340.417 445.393 333.403 434.351 341.904C413.708 357.796 391.186 360.997 366.804 352.146C357.176 348.651 350.381 344.212 342.357 337.552C341.647 336.922 340.951 336.275 340.27 335.614C326.959 322.633 317.365 299.892 317.312 281.229C317.191 265.23 323.558 249.865 334.96 238.645C354.979 218.895 386.29 215.322 412.635 221.597C417.718 222.127 430.236 228.53 434.664 227.557C447.052 224.836 436.854 211.426 432.298 208.049C411.085 191.901 391.651 202.201 369.297 206.448C351.691 209.793 335.055 194.452 333.852 177.627C331.918 150.566 381.407 143.51 399.725 142.081ZM424.088 274.631C419.959 266.876 409.802 264.484 401.706 265.248C370.432 274.104 381.314 310.48 404.914 301.323C410.192 298.501 423.05 287.039 424.772 281.551C425.486 279.246 425.239 276.751 424.088 274.631Z" fill="#8DBDC1"/>
<path d="M493.583 489.171C532.404 484.231 565.999 518.19 582.747 549.919C594.544 572.262 600.551 607.997 572.388 621.944C548.667 633.692 531.437 619.2 510.007 611.36C484.768 602.709 476.589 614.015 452.952 617.496C441.423 619.165 429.063 617.02 419.849 609.371C394.206 588.089 409.954 550.994 427.412 530.213C444.853 509.456 465.904 491.768 493.583 489.171Z" fill="#E1B497"/>
<path d="M537.262 421.354C541.718 421.178 546.105 422.473 549.746 425.039C565.484 436.183 561.058 468.666 542.95 475.318C541.056 476.014 538.897 476.367 536.919 476.699C532.257 476.8 527.684 475.393 523.885 472.69C506.347 460.175 513.217 424.88 537.262 421.354Z" fill="#E1B497"/>
<path d="M465.685 420.334C478.479 419.164 487.384 427.581 491.031 439.366C493.602 447.466 492.768 456.266 488.711 463.735C485.444 469.743 481.623 472.795 475.2 474.698C444.522 478.385 436.189 427.999 465.685 420.334Z" fill="#E1B497"/>
<path d="M588.607 461.629C616.421 458.652 616.887 507.699 587.925 512.004C557.112 510.964 562.166 468.119 588.607 461.629Z" fill="#E1B497"/>
<path d="M412.731 456.179C439.58 454.377 448.657 500.983 420.044 506.545C393.825 508.48 383.84 462.041 412.731 456.179Z" fill="#E1B497"/>
</svg>
